<svg xmlns:xlink="http://www.w3.org/1999/xlink" xmlns="http://www.w3.org/2000/svg" viewBox="0 0 28 28" class="a8c37x1j ms05siws hwsy1cff b7h9ocf4 aaxa7vy3" height="28" width="28"><path d="M21.877 19 21.364 19C21.139 19 20.971 18.802 20.996 18.577 21.01 18.461 21.017 18.342 21.017 18.221L21.017 17.724C21.017 16.568 20.667 15.491 20.066 14.591 19.899 14.338 20.067 14 20.369 14L20.521 14C22.274 14 23.5 15.492 23.5 17.327 23.5 18.25 22.772 19 21.877 19ZM17.75 10.75C17.75 9.384 18.535 8.5 19.75 8.5 20.965 8.5 21.75 9.384 21.75 10.75 21.75 11.991 20.853 13 19.75 13 18.647 13 17.75 11.991 17.75 10.75ZM19.5 18.221C19.5 19.202 18.682 20 17.678 20L10.323 20C9.317 20 8.5 19.202 8.5 18.221L8.5 17.724C8.5 15.395 10.442 13.5 12.828 13.5L15.173 13.5C17.559 13.5 19.5 15.395 19.5 17.724L19.5 18.221ZM6.25 10.75C6.25 9.384 7.035 8.5 8.25 8.5 9.465 8.5 10.25 9.384 10.25 10.75 10.25 11.991 9.353 13 8.25 13 7.147 13 6.25 11.991 6.25 10.75ZM7.934 14.591C7.334 15.491 6.983 16.568 6.983 17.724L6.983 18.221C6.983 18.342 6.991 18.461 7.004 18.577 7.03 18.802 6.861 19 6.637 19L6.123 19C5.228 19 4.5 18.25 4.5 17.327 4.5 15.492 5.727 14 7.479 14L7.631 14C7.933 14 8.102 14.338 7.934 14.591ZM14 6C15.697 6 16.75 7.15 16.75 9 16.75 10.655 15.517 12 14 12 12.484 12 11.25 10.655 11.25 9 11.25 7.15 12.304 6 14 6ZM14 1C6.832 1 1 6.832 1 14 1 21.169 6.832 27 14 27 21.169 27 27 21.169 27 14 27 6.832 21.169 1 14 1Z" fill="#1B74E4"></path></svg>