<svg xmlns:xlink="http://www.w3.org/1999/xlink" xmlns="http://www.w3.org/2000/svg" viewBox="0 0 28 28" class="a8c37x1j ms05siws hwsy1cff b7h9ocf4 aaxa7vy3" height="28" width="28"><path d="M8.75 25.25C8.336 25.25 8 24.914 8 24.5 8 24.086 8.336 23.75 8.75 23.75L19.25 23.75C19.664 23.75 20 24.086 20 24.5 20 24.914 19.664 25.25 19.25 25.25L8.75 25.25ZM17.164 12.846 12.055 15.923C11.591 16.202 11 15.869 11 15.327L11 9.172C11 8.631 11.591 8.297 12.055 8.576L17.164 11.654C17.612 11.924 17.612 12.575 17.164 12.846M21.75 2.75 6.25 2.75C4.182 2.75 2.5 4.432 2.5 6.5L2.5 18C2.5 20.068 4.182 21.75 6.25 21.75L21.75 21.75C23.818 21.75 25.5 20.068 25.5 18L25.5 6.5C25.5 4.432 23.818 2.75 21.75 2.75" fill="#1B74E4"></path></svg>