<svg xmlns="http://www.w3.org/2000/svg" viewBox="0 0 16 16" width="1em" height="1em" title="Shared with Custom"><title>Shared with Custom</title><g fill="#65676b" fill-rule="evenodd" transform="translate(-448 -544)"><g><path d="M102 398.75a3 3 0 1 1 0-6 3 3 0 0 1 0 6zm7.5-2.128v-1.744l-2.192-.548a5.48 5.48 0 0 0-.55-1.33l1.162-1.937-1.234-1.233-1.936 1.161a5.46 5.46 0 0 0-1.33-.549l-.548-2.192h-1.744l-.548 2.192a5.46 5.46 0 0 0-1.33.55l-1.936-1.162-1.234 1.233L97.242 393a5.484 5.484 0 0 0-.55 1.33l-2.192.548v1.744l2.192.548c.126.471.311.917.55 1.33l-1.162 1.937 1.234 1.233 1.936-1.162c.412.239.859.424 1.33.55l.548 2.192h1.744l.548-2.192a5.462 5.462 0 0 0 1.33-.55l1.936 1.162 1.234-1.233-1.162-1.937a5.48 5.48 0 0 0 .55-1.33l2.192-.548z" transform="translate(354 156.25)"/><path fill-rule="nonzero" d="M101.128 387.75h1.744a.5.5 0 0 1 .468.325l.017.054.479 1.914c.249.08.492.175.727.287l.175.086 1.691-1.015a.5.5 0 0 1 .565.034l.046.041 1.234 1.234a.5.5 0 0 1 .103.556l-.028.055-1.015 1.691c.119.231.222.47.31.716l.063.186 1.914.479a.5.5 0 0 1 .376.428l.003.057v1.744a.5.5 0 0 1-.325.468l-.054.017-1.914.479a5.99 5.99 0 0 1-.287.727l-.086.175 1.015 1.691a.5.5 0 0 1-.034.565l-.041.046-1.234 1.234a.5.5 0 0 1-.556.103l-.055-.028-1.69-1.015c-.232.119-.471.222-.717.31l-.186.063-.479 1.914a.5.5 0 0 1-.428.376l-.057.003h-1.744a.5.5 0 0 1-.468-.325l-.017-.054-.479-1.914a5.974 5.974 0 0 1-.727-.287l-.175-.086-1.691 1.015a.5.5 0 0 1-.565-.034l-.046-.041-1.234-1.234a.5.5 0 0 1-.103-.556l.028-.055 1.015-1.691a5.963 5.963 0 0 1-.31-.716l-.063-.186-1.914-.479a.5.5 0 0 1-.376-.428l-.003-.057v-1.744a.5.5 0 0 1 .325-.468l.054-.017 1.914-.479c.08-.25.176-.492.287-.728l.086-.174-1.015-1.691a.5.5 0 0 1 .034-.565l.041-.046 1.234-1.234a.5.5 0 0 1 .556-.103l.055.028 1.691 1.015c.231-.119.47-.223.717-.31l.185-.063.479-1.914a.5.5 0 0 1 .428-.376l.057-.003h1.744-1.744zm1.354 1h-.964l-.453 1.813a.5.5 0 0 1-.356.362 4.96 4.96 0 0 0-1.209.5.5.5 0 0 1-.447.026l-.06-.03-1.602-.961-.681.681.96 1.601a.5.5 0 0 1 .004.508 4.984 4.984 0 0 0-.499 1.21.5.5 0 0 1-.304.337l-.058.018-1.813.453v.964l1.813.453a.5.5 0 0 1 .362.356c.114.427.282.833.5 1.209a.5.5 0 0 1 .026.447l-.03.06-.961 1.602.681.681 1.602-.96a.5.5 0 0 1 .508-.005c.375.218.78.386 1.208.5a.5.5 0 0 1 .338.304l.018.058.453 1.813h.964l.453-1.813a.5.5 0 0 1 .356-.362 4.962 4.962 0 0 0 1.208-.5.5.5 0 0 1 .448-.027l.06.031 1.602.961.681-.681-.96-1.602a.5.5 0 0 1-.004-.507 4.98 4.98 0 0 0 .499-1.21.5.5 0 0 1 .304-.337l.058-.018 1.813-.453v-.964l-1.813-.453a.5.5 0 0 1-.362-.356 4.98 4.98 0 0 0-.5-1.209.5.5 0 0 1-.026-.447l.03-.06.961-1.602-.681-.681-1.602.96a.5.5 0 0 1-.507.004 4.96 4.96 0 0 0-1.209-.499.5.5 0 0 1-.338-.304l-.018-.058-.453-1.813zm-.482 3.5a3.5 3.5 0 1 1 0 7 3.5 3.5 0 0 1 0-7zm0 1a2.5 2.5 0 1 0 0 5 2.5 2.5 0 0 0 0-5z" transform="translate(354 156.25)"/></g></g></svg>